<?xml version="1.0" standalone="no"?>
<!DOCTYPE svg PUBLIC "-//W3C//DTD SVG 20010904//EN"
 "http://www.w3.org/TR/2001/REC-SVG-20010904/DTD/svg10.dtd">
<svg version="1.0" xmlns="http://www.w3.org/2000/svg"
 width="960.000000pt" height="967.000000pt" viewBox="0 0 960.000000 967.000000"
 preserveAspectRatio="xMidYMid meet">

<g transform="translate(0.000000,967.000000) scale(0.100000,-0.100000)"
fill="#000000" stroke="none">
<path d="M5320 7621 c0 -5 6 -11 13 -14 8 -3 3 -14 -15 -31 -18 -17 -25 -32
-21 -44 6 -15 5 -15 -10 -4 -14 12 -21 11 -46 -7 -46 -33 -138 -139 -171 -198
-17 -29 -37 -53 -45 -53 -9 0 -18 -7 -22 -15 -3 -9 -13 -15 -22 -14 -23 3 -65
-8 -151 -41 -41 -16 -86 -32 -100 -35 -43 -11 -89 -35 -98 -51 -7 -13 -14 -11
-41 15 -35 33 -156 67 -194 55 -80 -25 -256 -214 -317 -339 -22 -44 -42 -93
-46 -110 l-7 -30 24 22 c32 29 155 93 179 93 11 0 45 12 77 26 75 33 158 42
200 21 43 -23 87 -76 121 -149 66 -140 83 -228 72 -374 -11 -134 -18 -166 -51
-252 -16 -40 -29 -88 -29 -107 0 -18 -4 -36 -8 -39 -5 -3 -5 -27 -1 -53 4 -27
3 -95 -2 -153 -12 -117 -36 -188 -93 -269 -20 -28 -36 -53 -36 -56 0 -3 11 -5
25 -5 14 0 25 -6 26 -12 1 -7 7 5 13 27 12 39 17 43 147 107 121 61 189 82
189 60 0 -24 -146 -112 -184 -112 -7 0 -21 -7 -32 -15 -16 -13 -17 -16 -4 -24
10 -7 22 -6 38 5 12 8 57 17 100 21 l77 5 18 -93 c10 -52 22 -97 25 -100 4 -3
95 -29 202 -57 107 -28 290 -79 405 -113 116 -34 253 -73 305 -86 130 -33 125
-32 112 -45 -9 -9 11 -20 81 -44 50 -18 109 -39 129 -48 37 -16 38 -15 120 24
52 25 109 63 154 103 52 46 84 67 118 76 25 6 46 16 46 21 0 6 35 45 78 88 65
65 86 94 131 187 62 126 104 235 125 329 32 134 60 436 36 381 -8 -20 -9 -20
-9 1 -1 19 -6 21 -54 19 -29 -1 -58 -4 -64 -8 -6 -4 -18 -1 -26 7 -8 8 -17 12
-21 9 -3 -4 -6 -1 -6 4 0 6 6 14 13 16 10 4 10 6 0 6 -7 1 -13 8 -13 16 0 8
-4 15 -10 15 -5 0 -10 -8 -10 -17 -1 -33 -21 14 -25 55 -5 68 -26 156 -55 229
-23 57 -27 78 -20 108 7 33 5 40 -31 81 -21 25 -39 49 -39 53 0 4 11 29 25 55
15 28 25 65 26 95 2 45 -3 56 -49 118 -53 72 -92 113 -92 97 0 -6 4 -14 8 -20
5 -5 21 -36 35 -70 l27 -61 -19 -54 c-17 -47 -20 -50 -20 -24 -2 49 -12 75
-31 75 -11 0 -21 14 -30 43 -27 91 -79 171 -167 259 -177 176 -256 220 -356
198 -28 -7 -60 -16 -70 -22 -12 -6 -23 -6 -30 0 -32 26 -147 4 -177 -33 -8
-10 -26 -22 -40 -28 -25 -10 -25 -11 -2 -14 28 -5 29 -33 1 -33 -13 0 -18 4
-13 13 4 7 -1 5 -12 -3 -10 -9 -35 -23 -54 -32 -19 -9 -60 -37 -90 -64 -55
-47 -136 -91 -148 -80 -3 4 0 22 7 42 19 53 9 50 -30 -9 -58 -88 -129 -88
-216 2 -43 44 -45 98 -8 145 14 17 45 56 68 86 26 34 74 76 127 112 47 31 95
66 107 78 12 12 28 18 34 15 6 -4 33 3 60 15 53 26 60 36 12 19 -24 -8 -39 -7
-68 5 -41 18 -85 21 -85 7z m440 -255 c0 -8 -11 -17 -25 -20 -14 -4 -25 -11
-25 -16 0 -6 -10 -10 -21 -10 -18 0 -20 2 -8 16 10 12 50 34 77 43 1 1 2 -5 2
-13z m-131 -160 c11 -13 9 -17 -15 -27 -16 -5 -40 -8 -53 -6 -15 3 -39 -4 -64
-20 -46 -29 -60 -25 -20 6 15 11 45 34 67 51 40 31 57 30 85 -4z m-624 14 c3
-5 1 -10 -4 -10 -6 0 -11 5 -11 10 0 6 2 10 4 10 3 0 8 -4 11 -10z"/>
<path d="M5621 7616 c2 -2 38 -6 79 -9 44 -3 63 -2 45 3 -30 8 -132 13 -124 6z"/>
<path d="M6880 7474 c0 -4 7 -16 17 -26 9 -10 18 -30 19 -43 1 -14 10 -39 18
-57 9 -17 16 -36 16 -43 0 -12 69 -107 83 -113 4 -2 7 -11 7 -20 0 -9 15 -33
33 -52 31 -33 46 -59 99 -160 13 -25 34 -56 47 -69 22 -23 23 -23 17 -3 -4 12
-5 22 -2 22 11 0 45 -127 40 -147 -5 -17 -2 -23 10 -23 21 0 21 4 -10 102 -49
156 -151 347 -257 483 -51 65 -137 159 -137 149z"/>
<path d="M7301 6714 c0 -11 3 -14 6 -6 3 7 2 16 -1 19 -3 4 -6 -2 -5 -13z"/>
<path d="M4167 6308 c-37 -50 -55 -91 -72 -160 -18 -77 -19 -121 -3 -116 32
11 137 260 124 294 -8 22 -23 16 -49 -18z"/>
<path d="M3925 6054 c-8 -20 -15 -40 -15 -45 0 -4 -7 -14 -15 -22 -12 -13 -20
-13 -54 -1 -42 14 -87 6 -103 -19 -13 -20 -9 -60 5 -55 6 3 49 18 94 33 81 27
83 29 94 69 23 85 20 102 -6 40z"/>
<path d="M4210 5950 l-35 -19 35 6 c37 6 78 33 50 33 -8 -1 -31 -10 -50 -20z"/>
<path d="M4028 5924 c-17 -37 -9 -42 29 -21 21 12 21 13 4 34 l-18 21 -15 -34z"/>
<path d="M3830 5710 c0 -23 -36 -35 -79 -27 -16 3 -42 9 -57 12 -28 6 -28 5 5
-13 19 -11 43 -17 53 -14 11 3 18 -1 18 -10 0 -11 7 -14 25 -10 14 2 28 8 31
13 9 15 41 10 79 -11 42 -24 45 -24 45 -6 0 11 -100 86 -115 86 -3 0 -5 -9 -5
-20z"/>
<path d="M3580 5573 c-1 -5 -5 -27 -9 -51 -7 -36 -6 -44 10 -52 14 -8 20 -6
28 9 11 19 12 19 58 -4 40 -19 232 -85 248 -85 3 0 5 6 5 13 0 9 -44 28 -112
51 -142 48 -186 70 -198 101 -9 23 -29 35 -30 18z"/>
<path d="M3964 5452 c4 -6 0 -25 -9 -42 l-16 -30 113 -2 c315 -5 352 -4 328 3
-20 7 -220 46 -389 76 -24 4 -32 3 -27 -5z m59 -19 c-7 -2 -21 -2 -30 0 -10 3
-4 5 12 5 17 0 24 -2 18 -5z m172 -28 c124 -23 127 -24 50 -19 -76 5 -191 27
-203 38 -9 9 15 6 153 -19z"/>
<path d="M4568 5405 c-3 -13 0 -26 6 -29 6 -2 0 -8 -14 -14 l-25 -11 28 0 c25
-1 27 2 27 39 0 44 -15 54 -22 15z"/>
<path d="M3644 5330 c-113 -23 -121 -27 -122 -67 -1 -21 2 -49 7 -63 5 -14 19
-57 30 -96 l21 -71 87 -40 c49 -22 127 -56 175 -74 l87 -34 -2 -75 c-2 -67 0
-75 18 -78 15 -2 17 -1 6 6 -19 14 66 24 128 16 44 -6 51 -4 46 9 -4 8 -2 18
4 22 6 3 11 21 11 38 0 18 5 39 10 47 6 10 7 -8 3 -52 l-6 -68 29 -1 c16 0 38
-3 49 -6 11 -2 40 -8 65 -12 25 -5 53 -12 63 -16 12 -5 17 -3 17 9 0 9 5 16
10 16 6 0 10 -7 10 -15 0 -8 7 -15 15 -15 8 0 15 5 15 10 0 6 6 10 14 10 8 0
17 9 21 19 3 11 12 22 20 25 8 3 15 18 15 34 0 16 2 31 5 34 10 10 496 -80
553 -103 13 -5 33 -9 46 -9 13 0 43 -7 67 -16 24 -9 82 -20 128 -24 46 -5 87
-12 92 -17 4 -4 -10 -31 -31 -60 -22 -28 -40 -61 -40 -71 0 -30 40 -36 73 -11
l29 21 -12 -22 c-6 -12 -10 -23 -8 -24 2 -2 44 -11 93 -20 151 -29 248 -62
226 -76 -8 -4 4 -10 33 -14 25 -4 51 -4 58 0 7 4 8 3 4 -4 -3 -6 2 -16 13 -21
12 -7 21 -7 23 -1 2 6 9 6 18 0 26 -16 0 -25 -70 -24 -38 0 -67 -3 -64 -8 10
-15 118 -9 154 10 31 15 36 23 40 62 l5 45 146 6 c208 9 212 10 287 82 72 70
126 142 117 157 -3 6 -14 10 -24 10 -10 0 -24 7 -31 15 -7 8 -18 15 -24 15 -6
0 -35 16 -63 35 -29 19 -59 35 -66 35 -8 0 -47 14 -86 32 -82 36 -63 46 -156
-84 -30 -42 -55 -78 -55 -81 0 -3 18 -16 40 -28 49 -28 51 -39 6 -39 -36 0
-55 13 -36 25 15 9 -7 35 -29 35 -9 1 -26 6 -38 13 -23 13 -22 13 48 116 38
57 69 105 67 106 -5 6 -162 65 -170 65 -5 0 -30 -47 -58 -105 -28 -58 -55
-105 -60 -105 -14 0 -13 6 13 48 30 47 88 165 83 169 -5 6 -261 81 -298 88
l-35 7 -7 -69 c-8 -84 -27 -153 -41 -153 -6 0 -83 18 -170 40 -88 22 -214 52
-280 66 -66 14 -147 32 -180 39 -77 18 -358 70 -500 93 l-110 18 -2 55 c-2 30
-5 78 -9 107 -5 49 -7 52 -35 52 -26 0 -29 -4 -35 -40 -8 -51 -16 -55 -42 -25
-12 13 -34 27 -49 31 -45 9 -53 13 -52 21 5 31 -2 33 -153 32 -84 -1 -172 -5
-194 -9z m476 -195 c0 -11 -10 -15 -32 -14 l-33 2 29 4 c22 4 26 7 15 14 -11
7 -11 9 4 9 9 0 17 -7 17 -15z m1108 -282 c32 -20 20 -29 -17 -13 -16 6 -39 9
-50 5 -20 -6 -30 13 -15 28 9 9 54 -2 82 -20z m92 -29 c0 -3 -13 -3 -29 -2
-16 1 -28 5 -26 9 5 6 55 0 55 -7z m130 -34 c20 -6 21 -8 5 -8 -11 0 -29 3
-40 8 -25 11 1 11 35 0z m135 -41 c5 -5 0 -9 -13 -9 -12 0 -22 5 -22 11 0 7
-10 9 -25 7 -24 -5 -32 2 -19 15 7 6 64 -11 79 -24z m-100 1 c4 -6 -11 -10
-40 -10 -26 0 -55 -5 -66 -11 -11 -5 -32 -9 -47 -7 -30 5 -20 11 43 25 61 13
103 15 110 3z m230 -36 l30 -8 -35 -6 c-24 -4 -41 -1 -52 9 -25 20 -22 32 5
21 12 -5 36 -12 52 -16z"/>
<path d="M5080 5171 c24 -7 24 -8 5 -18 -16 -10 -14 -11 19 -10 28 1 42 -5 54
-20 10 -12 31 -25 47 -29 17 -4 35 -14 40 -21 10 -14 55 -20 185 -26 44 -2 55
1 58 15 2 13 -12 21 -65 37 -129 38 -312 81 -340 80 l-28 -1 25 -7z"/>
<path d="M4184 4661 c-13 -13 1 -21 36 -21 33 0 40 -3 38 -17 -2 -13 16 -25
77 -50 65 -26 88 -31 125 -26 39 5 43 4 33 -9 -7 -8 -10 -24 -6 -36 5 -21 2
-22 -71 -23 -93 -2 -96 -2 -96 -11 0 -5 0 -17 0 -28 0 -17 6 -20 38 -19 20 0
46 4 57 8 12 5 26 4 34 -3 11 -8 15 -8 18 1 3 7 13 9 31 4 15 -4 44 -6 66 -3
27 3 37 1 32 -7 -4 -6 -12 -11 -18 -11 -20 0 -87 -61 -117 -107 -31 -46 -40
-83 -21 -83 6 0 10 -18 10 -40 0 -22 -4 -40 -8 -40 -5 0 -15 -15 -24 -32 l-15
-33 5 58 c5 64 -5 72 -44 36 -20 -19 -27 -20 -55 -10 -44 15 -59 14 -59 -5 0
-25 -59 -159 -80 -182 -11 -11 -28 -25 -37 -31 -17 -9 -17 -11 1 -30 18 -20
18 -21 0 -27 -11 -4 -44 -19 -74 -32 -30 -14 -57 -26 -60 -27 -3 -1 -18 -7
-33 -13 -16 -7 -32 -12 -37 -12 -5 0 -7 -7 -4 -15 7 -16 -21 -22 -31 -6 -6 11
-48 7 -85 -7 -21 -9 -17 -10 24 -9 68 3 70 -17 4 -46 -29 -14 -65 -37 -80 -53
-25 -27 -73 -123 -65 -130 2 -2 20 26 41 62 26 47 50 74 84 95 56 35 116 40
132 9 9 -18 8 -20 -15 -20 -60 0 -153 -123 -162 -216 -6 -54 9 -104 30 -104 5
0 4 7 -3 15 -23 28 -6 129 32 192 28 47 87 103 109 103 13 0 -5 -56 -37 -111
-18 -32 -44 -91 -58 -131 -28 -82 -26 -87 37 -120 36 -18 41 -18 49 -4 5 9 16
16 23 16 15 0 19 -18 15 -77 -1 -23 3 -33 13 -33 7 0 33 -18 58 -40 24 -22 53
-40 64 -40 82 0 191 177 220 355 7 44 16 87 20 96 4 12 -4 24 -27 40 -26 19
-44 23 -92 22 -33 -1 -71 3 -84 8 l-25 10 23 21 c19 18 22 28 17 68 -3 26 -3
57 -1 68 6 20 50 47 72 43 7 -1 25 6 40 17 46 32 49 33 48 12 -1 -19 -109
-130 -127 -130 -19 0 -8 -16 26 -37 19 -13 39 -23 45 -23 16 0 101 81 95 90
-3 5 4 11 14 15 22 7 74 76 108 142 12 23 26 50 32 60 5 10 12 27 16 37 8 28
13 18 25 -59 14 -93 37 -155 58 -155 33 0 87 -26 114 -53 15 -15 34 -27 42
-27 8 0 32 18 53 40 30 32 53 45 107 60 37 11 80 27 95 37 51 35 97 52 139 53
23 0 42 -4 42 -9 0 -4 -26 -9 -57 -10 -54 -1 -84 -13 -70 -27 4 -4 18 -2 32 4
34 16 120 15 137 0 14 -14 76 -38 98 -38 7 0 22 -11 34 -23 12 -13 31 -29 41
-35 42 -23 0 -24 -99 -3 -89 19 -114 21 -162 12 -32 -6 -59 -11 -60 -11 -3 0
3 -201 7 -215 1 -6 -1 -23 -4 -38 -9 -35 24 -72 56 -62 42 12 206 35 264 37
36 1 73 -5 97 -15 53 -23 61 -21 42 8 -25 39 -10 46 37 19 52 -30 57 -30 57
-1 0 25 -27 70 -38 63 -4 -2 -8 20 -9 49 -2 41 -8 60 -28 81 -24 26 -36 82
-15 69 6 -3 10 -14 10 -24 0 -10 11 -30 25 -45 16 -17 25 -39 25 -59 0 -18 11
-50 25 -72 13 -22 25 -56 25 -75 0 -35 15 -71 58 -140 26 -41 28 -63 7 -80
-24 -20 -19 -75 10 -104 30 -30 31 -47 6 -70 -25 -23 -76 -13 -96 18 -8 12
-51 39 -95 61 -54 26 -79 44 -75 53 2 7 0 10 -5 7 -6 -4 -17 0 -25 8 -7 8 -49
24 -92 35 -77 21 -132 24 -364 23 -92 -1 -112 3 -155 23 -45 23 -50 23 -61 8
-7 -9 -17 -22 -22 -28 -5 -7 -7 -21 -4 -33 4 -17 1 -21 -21 -21 -16 0 -26 -6
-26 -14 0 -8 -10 -22 -22 -30 -12 -9 -17 -16 -10 -16 7 0 12 -14 12 -32 0 -45
35 -187 42 -168 3 9 10 -1 17 -25 41 -131 120 -229 213 -263 47 -18 89 -23
225 -27 92 -3 196 -7 231 -10 45 -3 62 0 62 9 0 7 23 18 50 25 40 10 50 17 50
33 0 12 -8 27 -17 34 -17 12 -17 14 2 32 12 10 33 22 47 25 15 4 33 13 40 20
7 7 39 23 70 36 32 13 62 29 68 36 6 7 30 17 53 20 23 4 47 10 52 14 6 3 17 6
25 7 8 1 25 2 38 3 12 0 22 7 22 15 0 8 9 18 20 21 11 3 20 11 20 16 0 11 47
11 75 0 13 -5 26 -2 40 11 11 10 39 24 63 30 l44 11 -7 65 c-10 89 -11 92 -56
92 l-39 0 0 44 c0 43 0 43 59 70 32 14 64 33 71 41 19 23 5 197 -28 375 l-28
145 -74 0 -74 0 -22 63 c-66 182 -140 223 -412 229 l-132 3 -55 41 c-61 46
-67 64 -10 30 48 -28 91 -28 100 0 7 22 -7 39 -34 39 -10 0 -12 8 -7 31 4 24
3 30 -8 26 -7 -3 -26 1 -41 9 -15 8 -40 14 -56 14 -19 0 -29 5 -29 15 0 9 -10
20 -22 25 -23 9 -23 9 -2 9 12 1 24 -6 28 -14 3 -9 18 -15 40 -15 19 0 38 -4
41 -10 3 -5 14 -10 24 -10 10 0 39 -9 65 -21 47 -20 66 -19 66 5 0 14 -26 26
-95 44 -22 6 -87 25 -145 43 -58 17 -136 40 -175 51 -38 11 -78 24 -87 29 -10
5 -33 9 -52 9 -19 0 -45 4 -58 9 -75 28 -317 68 -488 81 -122 8 -308 9 -316 1z
m1046 -191 c18 -12 2 -12 -25 0 -13 6 -15 9 -5 9 8 0 22 -4 30 -9z m-190 -102
c10 -6 3 -8 -25 -4 -22 3 -84 6 -137 6 -54 0 -98 3 -98 8 0 10 242 2 260 -10z
m-430 3 c0 -5 -11 -11 -25 -13 -20 -4 -23 -3 -14 8 13 16 39 19 39 5z m-20
-120 c0 -5 -7 -11 -15 -15 -15 -5 -20 5 -8 17 9 10 23 9 23 -2z m-183 -245
c-5 -16 -27 -19 -27 -3 0 7 7 14 15 14 9 0 14 -5 12 -11z m1513 -61 c15 -18 5
-35 -21 -35 -12 0 -19 7 -19 18 0 33 20 42 40 17z m-1163 -171 c-3 -3 -12 -4
-19 -1 -8 3 -5 6 6 6 11 1 17 -2 13 -5z m-747 -50 c-1 -5 -6 -8 -11 -7 -4 2
-5 -5 -2 -13 4 -12 2 -15 -8 -12 -8 3 -13 13 -13 22 1 9 -2 16 -7 16 -5 0 -9
8 -9 18 0 13 -2 14 -9 3 -5 -8 -11 -9 -15 -3 -3 6 0 12 6 15 15 6 71 -26 68
-39z m124 11 c-5 -13 -34 -30 -34 -20 0 3 5 14 12 24 13 22 30 19 22 -4z
m1620 -11 c20 -19 23 -130 4 -137 -25 -8 -38 5 -38 38 0 19 -5 46 -10 61 -7
19 -7 30 1 40 15 18 24 18 43 -2z m-538 -29 c-7 -18 -26 -20 -26 -2 0 18 24
41 28 27 2 -6 1 -17 -2 -25z m257 3 c9 -60 36 -141 49 -149 10 -7 10 -9 -2 -9
-35 0 -43 18 -65 153 -3 20 -2 37 3 37 6 0 12 -15 15 -32z m-1418 12 c3 -5 1
-10 -4 -10 -6 0 -11 5 -11 10 0 6 2 10 4 10 3 0 8 -4 11 -10z m63 -25 c-10
-23 -28 -34 -28 -18 0 7 31 43 36 43 2 0 -2 -11 -8 -25z m1046 11 c-3 -8 -12
-17 -20 -20 -8 -3 -14 -15 -14 -26 0 -33 -17 -23 -18 11 0 22 5 32 21 39 32
13 37 12 31 -4z m256 -93 c-11 -17 -11 -17 -6 0 3 10 7 26 7 35 1 15 2 15 6 0
2 -10 -1 -25 -7 -35z m-510 -293 c46 -16 103 -25 193 -30 142 -8 168 -19 127
-50 -37 -29 -73 -33 -131 -16 -29 9 -67 16 -86 16 -40 0 -141 43 -149 65 -3 8
-12 15 -20 15 -8 0 -14 10 -14 23 0 13 3 17 8 10 4 -6 36 -21 72 -33z m-170
-60 c0 -5 -5 -10 -11 -10 -5 0 -7 5 -4 10 3 6 8 10 11 10 2 0 4 -4 4 -10z
m190 -57 c27 -12 52 -21 60 -20 3 0 16 -5 29 -12 13 -7 56 -17 94 -22 39 -5
75 -13 80 -18 14 -14 -98 -24 -135 -12 -18 6 -63 20 -100 31 -37 12 -70 26
-74 31 -7 12 3 42 14 37 4 -2 18 -9 32 -15z m-180 -23 c0 -5 -4 -10 -10 -10
-5 0 -10 5 -10 10 0 6 5 10 10 10 6 0 10 -4 10 -10z m560 -76 c0 -2 -12 -4
-26 -4 -14 0 -23 4 -20 9 6 8 46 4 46 -5z m-342 -33 c12 -6 22 -16 22 -22 0
-5 11 -15 25 -21 46 -21 26 -25 -30 -6 -31 10 -61 15 -68 11 -7 -4 -7 0 2 10
11 14 11 18 -3 23 -9 3 -16 10 -16 14 0 11 40 6 68 -9z m18 -177 c18 -14 18
-15 -6 -8 -31 8 -50 24 -29 24 8 0 24 -7 35 -16z m-131 -4 c3 -5 1 -10 -4 -10
-6 0 -11 5 -11 10 0 6 2 10 4 10 3 0 8 -4 11 -10z m75 -71 c0 -5 -4 -9 -10 -9
-5 0 -10 5 -10 11 0 6 -10 8 -22 5 -13 -3 -18 -3 -11 0 7 3 9 12 6 21 -5 13
-2 13 20 -2 15 -9 27 -21 27 -26z"/>
<path d="M4183 4094 c-21 -29 -53 -99 -53 -115 0 -5 4 -9 9 -9 15 0 51 69 44
86 -4 10 1 22 11 30 10 7 16 18 14 25 -2 7 -13 1 -25 -17z m-3 -58 c0 -3 -4
-8 -10 -11 -5 -3 -10 -1 -10 4 0 6 5 11 10 11 6 0 10 -2 10 -4z"/>
<path d="M4464 3132 c-12 -9 -25 -27 -28 -39 -6 -19 -26 -35 -51 -38 -5 -1
-21 -7 -35 -13 -14 -6 -41 -13 -62 -17 -45 -7 -124 -48 -161 -83 -35 -33 -70
-89 -63 -100 2 -4 -4 -35 -15 -67 -18 -54 -19 -69 -9 -154 21 -184 96 -305
244 -396 36 -22 65 -45 66 -51 0 -5 22 -18 50 -28 47 -17 63 -40 20 -29 -14 4
-20 0 -20 -11 0 -20 -14 -20 -110 -2 -68 13 -149 10 -166 -6 -6 -7 39 -25 110
-43 78 -20 90 -32 39 -41 -60 -9 -71 -19 -50 -42 9 -10 17 -26 17 -36 0 -9 12
-43 26 -74 28 -61 33 -91 21 -134 -7 -26 -5 -28 22 -28 40 0 171 -54 171 -71
0 -15 -43 -10 -105 11 -32 11 -70 20 -84 19 -18 0 -11 -5 24 -15 28 -9 55 -21
60 -28 6 -7 22 -17 38 -22 30 -10 36 -24 14 -38 -10 -7 -23 -3 -42 12 -15 12
-31 22 -35 22 -5 0 -10 -21 -13 -47 -6 -62 -35 -180 -53 -215 -8 -15 -14 -37
-14 -48 0 -28 -23 -50 -52 -50 -39 0 -45 14 -37 88 14 118 45 204 93 260 19
22 19 22 -2 22 -15 0 -27 -12 -40 -37 -19 -37 -52 -136 -67 -198 -4 -16 -9
-39 -12 -50 -3 -11 -7 -35 -10 -52 -3 -18 -10 -33 -17 -33 -6 0 -4 -4 4 -10
22 -14 134 -23 185 -16 52 8 64 27 85 133 34 166 76 239 164 285 33 17 51 19
125 14 47 -3 95 -5 106 -4 11 0 83 1 160 1 146 1 163 -3 225 -52 l24 -19 -24
-25 c-19 -18 -34 -24 -58 -22 -35 3 -32 -10 3 -17 11 -2 21 -9 21 -16 1 -6 2
-16 3 -22 0 -5 8 -10 16 -10 16 0 45 -59 45 -91 0 -33 -15 -20 -33 29 -13 34
-31 57 -66 84 -77 60 -77 60 -90 -29 -15 -95 -16 -146 -7 -243 10 -103 14
-120 30 -120 15 0 16 13 32 265 3 55 8 104 11 108 3 5 18 -31 34 -79 33 -96
97 -253 111 -269 17 -19 135 -16 259 9 176 35 204 46 204 82 0 26 4 29 45 37
25 4 60 15 78 23 18 8 37 12 42 9 6 -4 37 10 70 30 45 27 58 40 53 53 -6 14
-4 15 9 5 16 -14 28 -8 28 14 0 7 8 21 18 31 18 18 19 18 28 -2 5 -12 20 -22
37 -24 23 -3 27 0 27 21 0 22 -6 26 -40 32 -22 4 -63 4 -90 0 -47 -7 -49 -8
-53 -43 l-4 -37 -1 38 c-1 24 -7 37 -16 37 -9 0 -16 18 -20 51 -4 28 -13 61
-21 73 -7 11 -16 37 -19 56 -4 19 -16 56 -28 82 -17 39 -31 52 -79 78 -33 17
-64 28 -69 25 -6 -3 -15 -3 -21 0 -10 7 21 45 36 45 11 0 43 35 58 66 14 26
14 36 2 70 -17 50 -44 68 -89 60 -40 -8 -48 -30 -47 -123 0 -47 -2 -53 -14
-43 -18 15 -95 166 -95 186 0 19 41 34 93 34 60 0 85 9 93 33 4 12 16 33 26
48 12 16 18 38 16 55 -3 25 -7 29 -35 30 -18 1 -33 -2 -33 -6 0 -14 -56 -30
-130 -38 l-75 -7 1 -31 c2 -31 1 -31 -32 -21 -19 6 -34 16 -34 24 0 7 -9 13
-21 13 -22 0 -54 26 -42 33 5 3 23 8 41 12 23 5 32 12 32 26 0 11 5 17 10 14
6 -4 10 5 10 20 0 25 2 26 43 21 140 -17 174 -18 181 -1 3 9 3 22 -1 28 -4 6
-6 29 -4 50 1 29 -5 50 -25 78 -15 22 -24 42 -21 45 3 3 -3 21 -14 40 -20 37
-26 59 -8 34 7 -11 8 -3 3 30 -3 25 -8 47 -9 50 -6 10 -65 10 -65 0 0 -5 -9
-10 -20 -10 -11 0 -20 -5 -20 -12 0 -6 -9 -3 -20 7 -11 10 -20 14 -20 10 0 -5
-7 0 -16 11 -8 10 -13 13 -9 7 4 -9 -2 -13 -19 -13 -14 0 -26 -4 -26 -10 0 -5
-16 -16 -35 -25 -39 -15 -65 -38 -65 -54 0 -10 -38 -26 -46 -18 -2 2 8 17 23
32 30 30 12 24 -22 -7 -11 -10 -41 -36 -67 -57 -26 -22 -45 -42 -42 -45 2 -3
1 -4 -2 -1 -4 2 -26 -9 -51 -26 -60 -41 -146 -78 -199 -86 -105 -14 -293 128
-367 277 -73 148 -68 281 19 452 13 26 24 50 24 53 0 12 -57 3 -76 -13z m-42
-140 c-17 -45 -22 -80 -23 -151 -1 -60 4 -81 39 -158 37 -79 39 -89 24 -100
-37 -29 -68 2 -37 36 15 18 15 21 -1 53 -10 18 -23 51 -29 73 -7 22 -18 40
-26 40 -36 1 0 222 39 244 22 13 27 -2 14 -37z m1037 -419 c0 -25 -1 -26 -9
-8 -12 27 -12 35 0 35 6 0 10 -12 9 -27z m66 -3 c3 -5 2 -10 -4 -10 -5 0 -13
5 -16 10 -3 6 -2 10 4 10 5 0 13 -4 16 -10z m-35 -90 c0 -14 -33 -50 -45 -50
-12 0 -4 39 10 50 8 7 15 20 15 29 0 14 2 14 10 1 5 -8 10 -22 10 -30z m-915
-20 c29 -28 32 -45 8 -59 -15 -8 -24 -3 -50 26 -18 20 -33 43 -33 50 0 21 46
11 75 -17z m-6 -124 l23 -13 -22 -6 c-22 -6 -60 10 -60 25 0 12 32 9 59 -6z
m383 -188 c99 -47 157 -68 203 -75 25 -3 45 -9 45 -13 0 -3 -46 -11 -102 -17
-57 -6 -132 -17 -168 -23 -80 -14 -275 -6 -345 14 -27 8 -42 15 -33 15 11 1
15 7 12 15 -6 15 44 56 68 56 7 0 51 13 98 30 99 35 144 35 222 -2z m438 2
c-20 -13 -40 -13 -40 0 0 6 12 10 28 10 21 0 24 -2 12 -10z m-643 -416 c43 -9
107 -22 143 -30 36 -8 83 -19 105 -24 27 -6 -14 -8 -131 -6 -140 2 -176 6
-195 19 -13 10 -31 17 -41 17 -35 0 -8 32 34 39 3 0 42 -6 85 -15z m458 -44
c-3 -5 -23 -9 -43 -9 l-37 2 40 7 c22 4 41 8 43 9 2 0 0 -3 -3 -9z"/>
<path d="M5996 2951 c-4 -5 -2 -12 3 -15 5 -4 12 -2 15 3 4 5 2 12 -3 15 -5 4
-12 2 -15 -3z"/>
<path d="M3857 2853 c-20 -25 -37 -51 -37 -57 0 -6 7 -3 14 7 7 9 20 17 29 17
14 0 45 66 35 75 -2 2 -20 -17 -41 -42z"/>
<path d="M3955 2869 c-4 -6 -5 -12 -2 -15 2 -3 7 2 10 11 7 17 1 20 -8 4z"/>
<path d="M5835 2820 c-3 -5 -2 -10 4 -10 5 0 13 5 16 10 3 6 2 10 -4 10 -5 0
-13 -4 -16 -10z"/>
<path d="M5770 2786 c0 -10 28 -13 41 -5 10 6 7 9 -13 9 -16 0 -28 -2 -28 -4z"/>
<path d="M3930 2743 c0 -21 5 -45 10 -53 7 -11 10 -2 10 32 0 26 -4 50 -10 53
-6 4 -10 -9 -10 -32z"/>
<path d="M5693 2738 c9 -4 26 -4 39 1 20 8 18 9 -15 9 -26 -1 -34 -4 -24 -10z"/>
<path d="M3986 2385 c4 -8 8 -15 10 -15 2 0 4 7 4 15 0 8 -4 15 -10 15 -5 0
-7 -7 -4 -15z"/>
<path d="M4040 2310 c0 -5 5 -10 11 -10 5 0 7 5 4 10 -3 6 -8 10 -11 10 -2 0
-4 -4 -4 -10z"/>
<path d="M4082 2297 c-7 -8 -8 -18 -4 -22 4 -5 -2 -5 -12 -1 -19 7 -19 6 -2
-13 10 -11 22 -18 26 -16 13 8 21 -25 11 -43 -8 -15 0 -19 52 -33 34 -10 73
-20 87 -25 19 -5 5 14 -55 77 -43 46 -82 85 -86 87 -3 1 -11 -4 -17 -11z m10
-39 c-7 -7 -12 -8 -12 -2 0 14 12 26 19 19 2 -3 -1 -11 -7 -17z"/>
<path d="M5637 2250 c3 -11 9 -20 15 -20 5 0 4 9 -2 20 -6 11 -12 20 -14 20
-2 0 -2 -9 1 -20z"/>
<path d="M4170 1680 c0 -5 5 -10 10 -10 6 0 10 -7 10 -16 0 -11 6 -14 23 -8
29 9 31 10 23 30 -5 13 -10 14 -18 6 -8 -8 -17 -8 -30 -1 -12 6 -18 6 -18 -1z"/>
<path d="M3864 1612 c-61 -2 -73 -6 -77 -22 -3 -10 -2 -21 1 -24 3 -3 45 -6
93 -6 l87 0 -7 27 c-8 31 -4 30 -97 25z"/>
<path d="M5890 1611 c0 -5 5 -13 10 -16 6 -3 10 -2 10 4 0 5 -4 13 -10 16 -5
3 -10 2 -10 -4z"/>
<path d="M4067 1603 c-12 -11 -8 -33 6 -33 8 0 22 9 32 20 18 19 17 20 -7 20
-13 0 -28 -3 -31 -7z"/>
<path d="M4134 1592 c-21 -16 -67 -108 -84 -165 -5 -16 -5 -38 -1 -49 7 -20 9
-19 19 11 7 18 9 37 6 42 -3 5 -1 9 4 9 5 0 15 18 22 41 8 22 17 42 21 45 11
6 43 74 38 79 -3 2 -14 -4 -25 -13z"/>
<path d="M3740 1584 c0 -8 5 -12 10 -9 6 4 8 11 5 16 -9 14 -15 11 -15 -7z"/>
<path d="M4870 1573 c0 -5 24 -9 53 -10 37 -2 46 0 32 7 -25 11 -85 13 -85 3z"/>
<path d="M4820 1555 c-8 -9 -8 -15 -2 -15 12 0 26 19 19 26 -2 2 -10 -2 -17
-11z"/>
<path d="M4055 1550 c-3 -5 1 -10 10 -10 9 0 13 5 10 10 -3 6 -8 10 -10 10 -2
0 -7 -4 -10 -10z"/>
<path d="M3815 1429 c-66 -9 -174 -28 -240 -42 -66 -14 -183 -37 -260 -52
-184 -35 -275 -61 -275 -81 0 -9 -5 -12 -11 -8 -6 3 -4 -4 4 -17 8 -13 18 -45
21 -70 7 -49 35 -101 36 -66 0 21 7 22 26 3 19 -19 18 -27 -3 -20 -15 5 -16 4
-3 -5 8 -6 19 -6 24 -1 4 4 23 6 41 3 29 -5 33 -3 38 26 4 18 13 31 21 31 8 0
18 9 21 20 3 11 11 20 16 20 5 0 9 14 9 31 0 27 2 29 15 15 8 -8 15 -21 15
-28 1 -9 4 -8 13 3 7 9 31 20 55 24 23 4 42 12 42 19 0 15 56 43 106 52 22 3
44 10 49 14 12 10 275 9 269 -1 -2 -4 3 -10 12 -13 24 -9 36 -7 29 4 -4 7 7 9
32 5 21 -3 44 -2 51 3 7 4 23 41 36 80 l23 72 -46 -2 c-25 -1 -100 -9 -166
-19z m142 -125 c-3 -3 -12 -4 -19 -1 -8 3 -5 6 6 6 11 1 17 -2 13 -5z"/>
<path d="M6178 1395 c3 -20 7 -23 18 -14 20 16 17 39 -5 39 -14 0 -17 -6 -13
-25z"/>
<path d="M6295 1400 c3 -5 14 -10 23 -10 15 0 15 2 2 10 -20 13 -33 13 -25 0z"/>
<path d="M6470 1381 c8 -6 29 -11 47 -11 19 0 36 -7 41 -16 8 -14 10 -13 15 5
4 17 1 21 -16 21 -12 0 -40 3 -62 6 -30 4 -36 3 -25 -5z"/>
<path d="M6597 1364 c-15 -15 -6 -34 16 -34 13 0 32 -8 41 -19 9 -10 35 -21
56 -25 22 -3 40 -11 40 -16 0 -22 22 -8 34 21 16 37 22 31 31 -34 4 -26 11
-50 16 -53 5 -3 9 0 9 5 0 6 9 11 20 11 11 0 20 -4 20 -10 0 -5 5 -10 10 -10
6 0 10 7 10 16 0 12 7 14 33 9 17 -4 35 -13 39 -19 5 -6 8 -7 8 -1 1 6 7 -5
15 -22 10 -24 21 -33 37 -33 13 0 32 -3 43 -6 18 -4 20 1 23 51 2 46 0 55 -15
55 -9 0 -46 12 -82 26 -120 48 -386 106 -404 88z"/>
<path d="M4037 1343 c-4 -3 -7 -13 -7 -22 1 -13 3 -13 11 2 11 19 8 33 -4 20z"/>
<path d="M4020 1272 c0 -12 19 -26 26 -19 2 2 -2 10 -11 17 -9 8 -15 8 -15 2z"/>
<path d="M1878 1253 c-22 -6 -24 -39 -2 -47 28 -11 34 -6 32 24 -1 17 -5 29
-8 29 -3 -1 -13 -3 -22 -6z"/>
<path d="M6272 1235 c-11 -13 -25 -39 -32 -57 -6 -18 -18 -49 -26 -68 -8 -19
-15 -53 -17 -75 -2 -36 0 -40 24 -43 30 -3 46 16 71 88 50 138 38 229 -20 155z"/>
<path d="M2073 1233 c15 -2 37 -2 50 0 12 2 0 4 -28 4 -27 0 -38 -2 -22 -4z"/>
<path d="M6136 1175 c-8 -9 -18 -31 -22 -50 -7 -41 -6 -40 -158 -55 -60 -5
-112 -12 -114 -15 -3 -3 0 -5 6 -5 6 0 18 -22 27 -49 9 -28 23 -51 33 -53 26
-7 92 3 86 13 -3 5 8 9 24 9 26 0 29 3 24 25 -3 20 0 25 17 25 11 0 21 -6 21
-12 0 -9 3 -8 10 2 7 12 11 10 18 -11 6 -14 17 -30 25 -37 21 -18 31 0 45 79
15 84 15 122 0 137 -16 16 -23 15 -42 -3z"/>
<path d="M4700 1145 c-1 -5 -3 -20 -6 -32 -3 -19 1 -23 23 -23 24 0 25 1 11
18 -9 9 -18 24 -21 32 -3 8 -6 11 -7 5z"/>
<path d="M4420 1116 c0 -7 15 -17 33 -21 106 -24 468 -44 607 -34 105 7 60 10
-127 9 -103 -1 -143 2 -143 11 0 8 -4 8 -15 -1 -9 -7 -19 -10 -22 -6 -4 4 -1
11 7 16 9 6 10 10 3 10 -6 0 -15 -4 -18 -10 -8 -13 -125 -13 -125 0 0 6 -15 8
-40 4 -23 -4 -40 -3 -40 3 0 5 -15 10 -32 11 -51 1 -68 5 -68 14 0 4 -4 8 -10
8 -5 0 -10 -6 -10 -14z"/>
<path d="M8710 1126 c0 -8 71 -12 76 -4 3 4 -13 8 -35 8 -23 0 -41 -2 -41 -4z"/>
<path d="M5168 1073 c6 -2 18 -2 25 0 6 3 1 5 -13 5 -14 0 -19 -2 -12 -5z"/>
<path d="M2533 983 c-7 -2 -13 -9 -13 -15 0 -7 32 -8 93 -5 108 6 109 7 77 17
-28 9 -138 11 -157 3z"/>
<path d="M6310 935 c-19 -20 -21 -27 -10 -40 19 -23 28 -19 50 25 19 38 20 40
2 40 -10 0 -29 -11 -42 -25z"/>
<path d="M2041 912 c-8 -16 -6 -17 25 -14 20 3 34 10 34 18 0 21 -48 17 -59
-4z"/>
<path d="M2572 864 c-3 -41 5 -74 19 -74 5 0 9 25 9 55 0 38 -4 55 -13 55 -8
0 -14 -14 -15 -36z"/>
<path d="M5990 875 c0 -27 19 -75 30 -75 4 0 14 8 23 18 13 15 14 21 2 50 -17
40 -55 46 -55 7z"/>
<path d="M7100 871 c0 -6 5 -11 11 -11 5 0 8 -4 5 -9 -4 -5 18 -14 46 -20 184
-39 197 -43 191 -58 -7 -17 13 -33 41 -33 14 0 17 5 13 22 -3 12 -2 29 4 39
11 22 12 21 -146 49 -66 12 -130 23 -142 27 -14 3 -23 1 -23 -6z"/>
<path d="M1305 800 c-3 -5 -2 -10 4 -10 5 0 13 5 16 10 3 6 2 10 -4 10 -5 0
-13 -4 -16 -10z"/>
<path d="M1205 789 c-183 -32 -190 -33 -165 -39 14 -4 28 -2 31 2 3 5 6 -5 7
-21 0 -17 -4 -31 -9 -31 -5 0 -9 -4 -9 -10 0 -15 85 15 108 38 13 13 40 23 76
27 62 8 79 28 19 21 -21 -2 -30 -1 -20 1 9 2 17 9 17 14 0 5 -1 8 -2 8 -2 -1
-25 -5 -53 -10z"/>
<path d="M7930 750 c0 -28 2 -30 28 -24 50 12 48 32 -5 48 -20 7 -23 4 -23
-24z"/>
<path d="M798 753 c7 -3 16 -2 19 1 4 3 -2 6 -13 5 -11 0 -14 -3 -6 -6z"/>
<path d="M7565 753 c11 -2 37 -11 58 -19 55 -21 154 -19 166 4 8 16 0 17 -118
18 -69 0 -117 -1 -106 -3z"/>
<path d="M1040 720 c0 -17 2 -19 14 -8 14 13 12 28 -5 28 -5 0 -9 -9 -9 -20z"/>
<path d="M591 716 c-50 -13 -63 -30 -29 -40 38 -10 51 -7 44 9 -4 11 3 19 19
25 14 5 25 12 25 15 0 6 -5 6 -59 -9z"/>
<path d="M639 708 c-5 -16 -4 -48 2 -48 7 0 19 25 19 41 0 8 -18 14 -21 7z"/>
<path d="M2873 503 c9 -2 25 -2 35 0 9 3 1 5 -18 5 -19 0 -27 -2 -17 -5z"/>
<path d="M3130 480 c0 -5 7 -7 15 -4 8 4 15 8 15 10 0 2 -7 4 -15 4 -8 0 -15
-4 -15 -10z"/>
<path d="M3120 409 c0 -24 4 -38 10 -34 6 3 10 22 10 41 0 19 -4 34 -10 34 -5
0 -10 -18 -10 -41z"/>
<path d="M2375 410 c-8 -13 12 -40 30 -40 8 0 10 9 7 25 -4 25 -26 34 -37 15z"/>
</g>
</svg>
